<?xml version="1.0" encoding="UTF-8"?>
<svg width="385px" height="681px" viewBox="0 0 385 681" version="1.1" xmlns="http://www.w3.org/2000/svg" xmlns:xlink="http://www.w3.org/1999/xlink">
    <!-- Generator: Sketch 47.1 (45422) - http://www.bohemiancoding.com/sketch -->
    <title>Log In Page</title>
    <desc>Created with Sketch.</desc>
    <defs></defs>
    <g id="Page-1" stroke="none" stroke-width="1" fill="none" fill-rule="evenodd">
        <g id="Log-In-Page">
            <rect id="Base" fill="#5CC5F8" x="0.306026036" y="0.948820689" width="384" height="679.532813" rx="6"></rect>
            <polygon id="Back-Arrow" fill="#FFFFFF" transform="translate(27.161811, 34.110921) scale(-1, 1) rotate(-92.000000) translate(-27.161811, -34.110921) " points="37.1284776 26.1109207 27.1618109 36.0568667 17.1951443 26.1109207 14.1618109 29.1379478 27.1618109 42.1109207 40.1618109 29.1379478"></polygon>
            <rect id="Login-Button" fill="#332AC6" x="47" y="494" width="292" height="64" rx="6"></rect>
            <text id="Log-In" font-family="HelveticaNeue-Thin, Helvetica Neue" font-size="24" font-weight="300" letter-spacing="0.59375" fill="#FFFFFF">
                <tspan x="161.44275" y="535">Log In</tspan>
            </text>
            <rect id="Email-Input" fill="#FAFAFA" x="47" y="231" width="292" height="64" rx="6"></rect>
            <text id="Email-Address" font-family="HelveticaNeue-Thin, Helvetica Neue" font-size="18" font-weight="300" letter-spacing="0.59375" fill="#444444">
                <tspan x="77.342625" y="270">Email Address</tspan>
            </text>
            <rect id="Password-Input" fill="#FAFAFA" x="47" y="309" width="292" height="64" rx="6"></rect>
            <text id="Passsord" font-family="HelveticaNeue-Thin, Helvetica Neue" font-size="18" font-weight="300" letter-spacing="0.59375" fill="#444444">
                <tspan x="77.351" y="348">Password</tspan>
            </text>
            <g id="Logo" transform="translate(138.000000, 72.000000)">
                <circle id="Oval" fill="#FFFFFF" cx="55" cy="55" r="55"></circle>
                <path d="M34,78.3634225 L34,32 L34,32 C34,30.8954305 34.8954305,30 36,30 C36.6509327,30 37.2611441,30.3167801 37.6357077,30.849148 L71.8755415,79.5142745 L71.8755415,79.5142745 C72.5111395,80.4176509 73.7587248,80.6347282 74.6621012,79.9991302 C75.194469,79.6245666 75.5112492,79.0143552 75.5112492,78.3634225 L75.5112492,32 L75.5112492,32 C75.5112492,30.8954305 74.6158187,30 73.5112492,30 C72.8603164,30 72.2501051,30.3167801 71.8755415,30.849148 L37.6357077,79.5142745 L37.6357077,79.5142745 C37.0001097,80.4176509 35.7525244,80.6347282 34.849148,79.9991302 C34.3167801,79.6245666 34,79.0143552 34,78.3634225 Z" stroke="#5CC5F8" stroke-width="5" stroke-linecap="square"></path>
            </g>
        </g>
    </g>
</svg>